<mxfile host="app.diagrams.net" agent="Mozilla/5.0 (Windows NT 10.0; Win64; x64) AppleWebKit/537.36 (KHTML, like Gecko) Chrome/136.0.0.0 Safari/537.36 Edg/136.0.0.0" version="27.0.9">
  <diagram name="第 1 页" id="9lwWoSXgeF6Ga10Fo_0w">
    <mxGraphModel dx="1243" dy="719" grid="1" gridSize="10" guides="1" tooltips="1" connect="1" arrows="1" fold="1" page="1" pageScale="1" pageWidth="827" pageHeight="1169" math="0" shadow="0">
      <root>
        <mxCell id="0" />
        <mxCell id="1" parent="0" />
        <mxCell id="C6gaotGxgLFd2unwDD3p-36" style="edgeStyle=orthogonalEdgeStyle;rounded=0;orthogonalLoop=1;jettySize=auto;html=1;entryX=0.5;entryY=0;entryDx=0;entryDy=0;" edge="1" parent="1" source="C6gaotGxgLFd2unwDD3p-2" target="C6gaotGxgLFd2unwDD3p-3">
          <mxGeometry relative="1" as="geometry" />
        </mxCell>
        <mxCell id="C6gaotGxgLFd2unwDD3p-37" style="edgeStyle=orthogonalEdgeStyle;rounded=0;orthogonalLoop=1;jettySize=auto;html=1;exitX=0.5;exitY=1;exitDx=0;exitDy=0;entryX=0.5;entryY=0;entryDx=0;entryDy=0;" edge="1" parent="1" source="C6gaotGxgLFd2unwDD3p-2" target="C6gaotGxgLFd2unwDD3p-4">
          <mxGeometry relative="1" as="geometry" />
        </mxCell>
        <mxCell id="C6gaotGxgLFd2unwDD3p-2" value="点击开始采集按钮" style="whiteSpace=wrap;strokeWidth=2;fillColor=#dae8fc;strokeColor=#6c8ebf;" vertex="1" parent="1">
          <mxGeometry x="237" y="66" width="188" height="54" as="geometry" />
        </mxCell>
        <mxCell id="C6gaotGxgLFd2unwDD3p-39" style="edgeStyle=orthogonalEdgeStyle;rounded=0;orthogonalLoop=1;jettySize=auto;html=1;exitX=0.5;exitY=1;exitDx=0;exitDy=0;entryX=0.5;entryY=0;entryDx=0;entryDy=0;" edge="1" parent="1" source="C6gaotGxgLFd2unwDD3p-3" target="C6gaotGxgLFd2unwDD3p-5">
          <mxGeometry relative="1" as="geometry" />
        </mxCell>
        <mxCell id="C6gaotGxgLFd2unwDD3p-3" value="以太网通讯获取振动信息" style="whiteSpace=wrap;strokeWidth=2;fillColor=#fff2cc;strokeColor=#d6b656;" vertex="1" parent="1">
          <mxGeometry x="69" y="160" width="236" height="54" as="geometry" />
        </mxCell>
        <mxCell id="C6gaotGxgLFd2unwDD3p-40" style="edgeStyle=orthogonalEdgeStyle;rounded=0;orthogonalLoop=1;jettySize=auto;html=1;exitX=0.5;exitY=1;exitDx=0;exitDy=0;entryX=0.5;entryY=0;entryDx=0;entryDy=0;" edge="1" parent="1" source="C6gaotGxgLFd2unwDD3p-4" target="C6gaotGxgLFd2unwDD3p-5">
          <mxGeometry relative="1" as="geometry" />
        </mxCell>
        <mxCell id="C6gaotGxgLFd2unwDD3p-4" value="Modbus通讯获取电机信息" style="whiteSpace=wrap;strokeWidth=2;fillColor=#dae8fc;strokeColor=#6c8ebf;" vertex="1" parent="1">
          <mxGeometry x="355" y="160" width="241" height="54" as="geometry" />
        </mxCell>
        <mxCell id="C6gaotGxgLFd2unwDD3p-5" value="图表的显示数据" style="whiteSpace=wrap;strokeWidth=2;fillColor=#dae8fc;strokeColor=#6c8ebf;" vertex="1" parent="1">
          <mxGeometry x="245" y="260" width="172" height="54" as="geometry" />
        </mxCell>
        <mxCell id="C6gaotGxgLFd2unwDD3p-6" value="点击开始预测" style="whiteSpace=wrap;strokeWidth=2;fillColor=#dae8fc;strokeColor=#6c8ebf;" vertex="1" parent="1">
          <mxGeometry x="253" y="350" width="156" height="54" as="geometry" />
        </mxCell>
        <mxCell id="C6gaotGxgLFd2unwDD3p-7" value="以太网通讯获取边缘端诊断结果" style="whiteSpace=wrap;strokeWidth=2;fillColor=#fff2cc;strokeColor=#d6b656;" vertex="1" parent="1">
          <mxGeometry x="213" y="441" width="236" height="54" as="geometry" />
        </mxCell>
        <mxCell id="C6gaotGxgLFd2unwDD3p-8" value="显示诊断结果" style="whiteSpace=wrap;strokeWidth=2;fillColor=#dae8fc;strokeColor=#6c8ebf;" vertex="1" parent="1">
          <mxGeometry x="253" y="531" width="156" height="54" as="geometry" />
        </mxCell>
        <mxCell id="C6gaotGxgLFd2unwDD3p-13" value="" style="curved=1;startArrow=none;endArrow=block;exitX=0.5;exitY=0.99;entryX=0.5;entryY=-0.01;rounded=0;" edge="1" parent="1" source="C6gaotGxgLFd2unwDD3p-5" target="C6gaotGxgLFd2unwDD3p-6">
          <mxGeometry relative="1" as="geometry">
            <Array as="points" />
          </mxGeometry>
        </mxCell>
        <mxCell id="C6gaotGxgLFd2unwDD3p-14" value="" style="curved=1;startArrow=none;endArrow=block;exitX=0.5;exitY=0.99;entryX=0.5;entryY=-0.01;rounded=0;" edge="1" parent="1" source="C6gaotGxgLFd2unwDD3p-6" target="C6gaotGxgLFd2unwDD3p-7">
          <mxGeometry relative="1" as="geometry">
            <Array as="points" />
          </mxGeometry>
        </mxCell>
        <mxCell id="C6gaotGxgLFd2unwDD3p-15" value="" style="curved=1;startArrow=none;endArrow=block;exitX=0.5;exitY=0.99;entryX=0.5;entryY=-0.01;rounded=0;" edge="1" parent="1" source="C6gaotGxgLFd2unwDD3p-7" target="C6gaotGxgLFd2unwDD3p-8">
          <mxGeometry relative="1" as="geometry">
            <Array as="points" />
          </mxGeometry>
        </mxCell>
        <mxCell id="C6gaotGxgLFd2unwDD3p-41" style="edgeStyle=orthogonalEdgeStyle;rounded=0;orthogonalLoop=1;jettySize=auto;html=1;entryX=0.5;entryY=0;entryDx=0;entryDy=0;" edge="1" parent="1" source="C6gaotGxgLFd2unwDD3p-17" target="C6gaotGxgLFd2unwDD3p-18">
          <mxGeometry relative="1" as="geometry">
            <Array as="points">
              <mxPoint x="895" y="134" />
              <mxPoint x="763" y="134" />
            </Array>
          </mxGeometry>
        </mxCell>
        <mxCell id="C6gaotGxgLFd2unwDD3p-42" style="edgeStyle=orthogonalEdgeStyle;rounded=0;orthogonalLoop=1;jettySize=auto;html=1;entryX=0.5;entryY=0;entryDx=0;entryDy=0;" edge="1" parent="1" source="C6gaotGxgLFd2unwDD3p-17" target="C6gaotGxgLFd2unwDD3p-19">
          <mxGeometry relative="1" as="geometry" />
        </mxCell>
        <mxCell id="C6gaotGxgLFd2unwDD3p-17" value="点击开始采集按钮" style="whiteSpace=wrap;strokeWidth=2;fillColor=#dae8fc;strokeColor=#6c8ebf;" vertex="1" parent="1">
          <mxGeometry x="801" y="60" width="188" height="54" as="geometry" />
        </mxCell>
        <mxCell id="C6gaotGxgLFd2unwDD3p-43" style="edgeStyle=orthogonalEdgeStyle;rounded=0;orthogonalLoop=1;jettySize=auto;html=1;exitX=0.5;exitY=1;exitDx=0;exitDy=0;entryX=0.5;entryY=0;entryDx=0;entryDy=0;" edge="1" parent="1" source="C6gaotGxgLFd2unwDD3p-18" target="C6gaotGxgLFd2unwDD3p-20">
          <mxGeometry relative="1" as="geometry" />
        </mxCell>
        <mxCell id="C6gaotGxgLFd2unwDD3p-18" value="调用子VI采集数据" style="whiteSpace=wrap;strokeWidth=2;fillColor=#fff2cc;strokeColor=#d6b656;" vertex="1" parent="1">
          <mxGeometry x="670" y="154" width="186" height="54" as="geometry" />
        </mxCell>
        <mxCell id="C6gaotGxgLFd2unwDD3p-45" style="edgeStyle=orthogonalEdgeStyle;rounded=0;orthogonalLoop=1;jettySize=auto;html=1;exitX=0.5;exitY=1;exitDx=0;exitDy=0;entryX=0.5;entryY=0;entryDx=0;entryDy=0;" edge="1" parent="1" source="C6gaotGxgLFd2unwDD3p-19" target="C6gaotGxgLFd2unwDD3p-20">
          <mxGeometry relative="1" as="geometry" />
        </mxCell>
        <mxCell id="C6gaotGxgLFd2unwDD3p-19" value="Modbus通讯获取电机信息" style="whiteSpace=wrap;strokeWidth=2;fillColor=#dae8fc;strokeColor=#6c8ebf;" vertex="1" parent="1">
          <mxGeometry x="907.5" y="154" width="241" height="54" as="geometry" />
        </mxCell>
        <mxCell id="C6gaotGxgLFd2unwDD3p-46" style="edgeStyle=orthogonalEdgeStyle;rounded=0;orthogonalLoop=1;jettySize=auto;html=1;exitX=0.5;exitY=1;exitDx=0;exitDy=0;entryX=0.5;entryY=0;entryDx=0;entryDy=0;" edge="1" parent="1" source="C6gaotGxgLFd2unwDD3p-20" target="C6gaotGxgLFd2unwDD3p-21">
          <mxGeometry relative="1" as="geometry">
            <Array as="points">
              <mxPoint x="895" y="328" />
              <mxPoint x="764" y="328" />
            </Array>
          </mxGeometry>
        </mxCell>
        <mxCell id="C6gaotGxgLFd2unwDD3p-47" style="edgeStyle=orthogonalEdgeStyle;rounded=0;orthogonalLoop=1;jettySize=auto;html=1;exitX=0.5;exitY=1;exitDx=0;exitDy=0;entryX=0.5;entryY=0;entryDx=0;entryDy=0;" edge="1" parent="1" source="C6gaotGxgLFd2unwDD3p-20" target="C6gaotGxgLFd2unwDD3p-22">
          <mxGeometry relative="1" as="geometry">
            <Array as="points">
              <mxPoint x="895" y="328" />
              <mxPoint x="1017" y="328" />
            </Array>
          </mxGeometry>
        </mxCell>
        <mxCell id="C6gaotGxgLFd2unwDD3p-20" value="图表的显示数据" style="whiteSpace=wrap;strokeWidth=2;fillColor=#dae8fc;strokeColor=#6c8ebf;" vertex="1" parent="1">
          <mxGeometry x="809" y="254" width="172" height="54" as="geometry" />
        </mxCell>
        <mxCell id="C6gaotGxgLFd2unwDD3p-49" style="edgeStyle=orthogonalEdgeStyle;rounded=0;orthogonalLoop=1;jettySize=auto;html=1;entryX=0.5;entryY=0;entryDx=0;entryDy=0;" edge="1" parent="1" source="C6gaotGxgLFd2unwDD3p-21" target="C6gaotGxgLFd2unwDD3p-23">
          <mxGeometry relative="1" as="geometry" />
        </mxCell>
        <mxCell id="C6gaotGxgLFd2unwDD3p-21" value="点击开始预测" style="whiteSpace=wrap;strokeWidth=2;fillColor=#dae8fc;strokeColor=#6c8ebf;" vertex="1" parent="1">
          <mxGeometry x="686" y="344" width="156" height="54" as="geometry" />
        </mxCell>
        <mxCell id="C6gaotGxgLFd2unwDD3p-50" style="edgeStyle=orthogonalEdgeStyle;rounded=0;orthogonalLoop=1;jettySize=auto;html=1;entryX=0.5;entryY=0;entryDx=0;entryDy=0;" edge="1" parent="1" source="C6gaotGxgLFd2unwDD3p-22" target="C6gaotGxgLFd2unwDD3p-25">
          <mxGeometry relative="1" as="geometry" />
        </mxCell>
        <mxCell id="C6gaotGxgLFd2unwDD3p-22" value="点击数据保存" style="whiteSpace=wrap;strokeWidth=2;fillColor=#fff2cc;strokeColor=#d6b656;" vertex="1" parent="1">
          <mxGeometry x="939" y="344" width="156" height="54" as="geometry" />
        </mxCell>
        <mxCell id="C6gaotGxgLFd2unwDD3p-23" value="利用数据进行诊断" style="whiteSpace=wrap;strokeWidth=2;fillColor=#fff2cc;strokeColor=#d6b656;" vertex="1" parent="1">
          <mxGeometry x="670" y="441" width="188" height="54" as="geometry" />
        </mxCell>
        <mxCell id="C6gaotGxgLFd2unwDD3p-24" value="显示返回值" style="whiteSpace=wrap;strokeWidth=2;fillColor=#dae8fc;strokeColor=#6c8ebf;" vertex="1" parent="1">
          <mxGeometry x="694" y="531" width="140" height="54" as="geometry" />
        </mxCell>
        <mxCell id="C6gaotGxgLFd2unwDD3p-25" value="按规定路径保存振动数据" style="whiteSpace=wrap;strokeWidth=2;fillColor=#fff2cc;strokeColor=#d6b656;" vertex="1" parent="1">
          <mxGeometry x="899" y="440" width="236" height="54" as="geometry" />
        </mxCell>
        <mxCell id="C6gaotGxgLFd2unwDD3p-33" value="" style="curved=1;startArrow=none;endArrow=block;exitX=0.5;exitY=0.99;entryX=0.5;entryY=-0.01;rounded=0;" edge="1" parent="1" source="C6gaotGxgLFd2unwDD3p-23" target="C6gaotGxgLFd2unwDD3p-24">
          <mxGeometry relative="1" as="geometry">
            <Array as="points" />
          </mxGeometry>
        </mxCell>
      </root>
    </mxGraphModel>
  </diagram>
</mxfile>
